<?xml version="1.0" standalone="no"?>
<!DOCTYPE svg PUBLIC "-//W3C//DTD SVG 20010904//EN"
 "http://www.w3.org/TR/2001/REC-SVG-20010904/DTD/svg10.dtd">
<svg version="1.0" xmlns="http://www.w3.org/2000/svg"
 width="100.000000pt" height="145.000000pt" viewBox="0 0 100.000000 145.000000"
 preserveAspectRatio="xMidYMid meet">

<g transform="translate(0.000000,145.000000) scale(0.100000,-0.100000)"
fill="#000000" stroke="none">
<path d="M417 1440 c-68 -18 -141 -62 -202 -124 -278 -282 -284 -870 -12
-1172 93 -102 235 -157 350 -136 90 17 164 57 232 127 77 78 120 151 161 273
159 464 -66 1016 -423 1037 -37 2 -85 0 -106 -5z m74 -58 c0 -12 3 -9 10 7 11
29 25 19 34 -24 5 -21 4 -26 -3 -16 -8 11 -17 11 -40 3 -22 -7 -33 -7 -41 1
-9 9 -14 9 -20 -1 -7 -11 -10 -10 -15 3 -12 32 -6 45 18 45 18 0 26 -7 29 -22
4 -19 4 -18 6 5 1 30 21 29 22 -1z m99 -4 c1 -21 2 -21 11 -5 15 26 30 20 24
-10 -5 -27 -5 -27 6 -5 14 26 22 28 40 5 12 -15 12 -16 -5 -10 -17 7 -17 6 -5
-10 12 -15 12 -16 -3 -10 -10 3 -18 2 -18 -3 0 -6 5 -10 10 -10 6 0 10 -5 10
-11 0 -6 -15 -1 -33 10 -19 11 -37 18 -40 14 -4 -3 -7 -1 -7 6 0 7 -4 9 -10 6
-11 -7 -12 0 -4 33 4 12 10 22 15 22 5 0 9 -10 9 -22z m-206 -4 c-16 -13 -16
-15 -1 -10 9 3 17 1 17 -4 0 -6 -6 -10 -12 -11 -7 0 -4 -4 7 -8 18 -7 16 -10
-18 -24 -21 -9 -44 -14 -52 -10 -11 4 -13 1 -9 -11 3 -9 2 -16 -3 -16 -5 0
-26 -16 -46 -36 -31 -31 -39 -35 -52 -24 -17 14 -20 46 -4 56 6 3 16 1 22 -5
17 -17 31 -13 17 4 -14 16 -7 45 11 45 8 0 7 -5 -2 -16 -12 -15 -11 -16 11 -9
22 7 23 6 11 -9 -12 -14 -12 -16 3 -10 10 4 15 13 12 20 -3 8 -9 21 -13 30 -5
13 -2 15 15 10 18 -6 21 -4 16 11 -4 13 0 11 15 -7 22 -27 28 -21 11 11 -6 10
-7 19 -2 19 4 0 13 -12 20 -27 l12 -28 -6 28 c-6 33 1 47 24 47 13 0 13 -2 -4
-16z m341 -45 c11 -16 -5 -25 -16 -9 -8 13 -10 13 -18 0 -11 -16 -4 -33 10
-25 5 4 9 1 9 -5 0 -7 6 -8 19 0 29 15 34 13 28 -16 -3 -18 -1 -22 6 -15 17
17 24 13 29 -14 3 -14 -1 -30 -8 -36 -11 -9 -14 -7 -14 9 0 13 -6 19 -17 18
-10 0 -17 5 -15 12 1 7 -14 20 -33 28 -33 13 -46 40 -28 57 10 11 41 8 48 -4z
m-86 -54 c111 -61 201 -191 241 -350 28 -109 28 -290 1 -396 -42 -165 -138
-301 -249 -356 -77 -38 -183 -40 -255 -4 -106 52 -194 166 -244 316 -25 73
-27 93 -27 240 0 147 2 167 27 240 53 159 151 281 260 324 75 30 175 24 246
-14z m186 -65 c-3 -5 -16 -15 -28 -21 -21 -11 -21 -10 2 15 14 14 19 26 12 26
-7 0 -9 5 -5 11 5 8 10 6 16 -5 5 -9 6 -21 3 -26z m-624 10 c23 -13 25 -30 3
-30 -8 0 -12 -4 -9 -10 3 -5 2 -16 -2 -24 -7 -13 -11 -12 -31 3 -28 20 -21 56
9 48 21 -6 26 8 7 16 -7 3 -9 6 -5 6 5 1 17 -4 28 -9z m657 -45 c3 -19 2 -19
-8 -2 -9 14 -15 16 -26 6 -12 -10 -12 -14 3 -25 10 -7 28 -14 41 -14 22 0 22
-1 6 -25 -15 -23 -43 -37 -29 -15 3 5 -5 21 -19 35 -29 29 -31 36 -14 53 18
18 42 10 46 -13z m-716 -65 c-5 -13 -3 -13 11 -1 18 14 22 5 8 -18 -7 -11 -13
-11 -32 -1 -33 17 -32 16 -19 39 9 17 13 19 24 9 7 -7 11 -20 8 -28z m-12 -35
c14 -17 7 -45 -12 -45 -26 0 -40 17 -33 39 7 25 27 27 45 6z m776 0 c-3 -8 -1
-15 4 -15 6 0 10 -3 10 -7 0 -5 -14 -8 -30 -9 -35 -1 -36 0 -12 25 21 23 36
27 28 6z m38 -71 c9 -23 -3 -32 -15 -14 -9 12 -10 12 -5 -2 6 -20 -10 -25 -17
-5 -3 7 -6 4 -6 -7 -1 -14 4 -17 24 -14 30 6 34 -8 5 -17 -31 -10 -25 -36 8
-33 22 3 28 -1 30 -22 4 -24 3 -25 -12 -5 l-16 20 6 -20 c6 -20 5 -20 -10 -1
-16 19 -16 19 -17 -5 -1 -13 -7 1 -14 31 -7 30 -16 63 -20 72 -5 13 -1 20 16
27 33 13 36 13 43 -5z m-837 -5 c13 -13 -3 -69 -19 -69 -6 0 -8 -7 -4 -15 7
-19 -3 -19 -29 1 -17 13 -18 16 -5 24 8 5 22 10 30 10 9 1 6 5 -7 10 -25 10
-26 11 -17 34 7 18 35 21 51 5z m-57 -99 c0 -5 6 -10 14 -10 8 0 18 -5 22 -11
5 -8 -1 -10 -19 -5 -16 4 -27 1 -30 -7 -3 -6 -6 0 -6 16 -1 15 4 27 9 27 6 0
10 -4 10 -10z m38 -57 c-2 -9 -14 -20 -28 -24 -25 -7 -25 -7 -2 -8 36 -2 26
-45 -10 -49 -16 -2 -28 1 -28 7 0 6 11 11 25 11 14 0 25 5 25 10 0 6 -9 10
-20 10 -14 0 -20 7 -20 21 0 16 5 20 20 16 13 -3 20 0 20 9 0 8 5 14 11 14 6
0 9 -8 7 -17z m886 1 c3 -9 3 -21 -1 -27 -4 -6 -10 -1 -15 12 -10 28 -31 17
-23 -12 6 -21 6 -21 -9 -3 -12 14 -13 23 -5 33 16 18 46 16 53 -3z m6 -62 c0
-15 -6 -18 -31 -14 -32 5 -29 16 6 25 11 3 21 5 23 6 1 0 2 -7 2 -17z m-946
-47 c-4 -11 0 -15 16 -15 16 0 20 4 16 15 -3 8 -1 15 5 15 12 0 9 -49 -4 -67
-4 -6 -3 -14 3 -18 22 -14 8 -23 -20 -14 -36 13 -38 25 -8 35 l23 7 -23 8
c-22 8 -32 49 -12 49 5 0 7 -7 4 -15z m946 -11 c0 -21 -4 -25 -20 -21 -11 3
-23 1 -26 -4 -3 -5 6 -9 20 -9 14 0 26 -5 26 -10 0 -6 -11 -8 -27 -4 -38 9
-39 12 -24 36 11 17 11 22 -1 29 -9 6 -2 9 20 9 28 0 32 -3 32 -26z m-10 -69
c6 -8 9 -19 5 -25 -9 -14 -23 -13 -21 3 0 6 -3 13 -9 15 -18 4 -13 -39 6 -49
27 -14 23 -26 -8 -32 -34 -6 -40 -2 -24 17 8 9 8 16 2 20 -6 4 -8 13 -6 21 3
8 7 22 10 30 6 19 29 19 45 0z m-930 -27 c0 -9 4 -8 10 2 6 10 10 11 10 3 0
-7 7 -13 16 -13 8 0 12 -4 9 -10 -6 -9 -55 -15 -55 -6 0 2 -3 11 -6 20 -3 9
-1 16 5 16 6 0 11 -6 11 -12z m316 -503 c-7 -29 8 -34 23 -8 5 10 12 15 16 12
3 -3 -3 -17 -14 -30 -15 -18 -22 -21 -32 -12 -11 11 -5 63 7 63 4 0 3 -11 0
-25z m254 -20 c0 -7 8 -15 18 -18 16 -4 16 -4 -1 -12 -22 -9 -23 -8 -33 29 -5
21 -4 27 5 22 6 -4 11 -13 11 -21z m-146 -11 c7 -27 -3 -49 -11 -26 -4 10 -8
10 -19 1 -17 -14 -18 -8 -2 26 14 32 24 32 32 -1z m76 9 c0 9 5 17 10 17 6 0
10 -13 10 -30 0 -32 -8 -37 -29 -17 -10 8 -12 8 -7 0 3 -6 2 -14 -4 -18 -6 -4
-10 9 -10 32 1 36 2 37 15 19 13 -17 15 -18 15 -3z"/>
<path d="M210 1251 c0 -17 21 -24 33 -11 9 10 9 11 0 6 -7 -4 -13 -2 -13 3 0
6 -4 11 -10 11 -5 0 -10 -4 -10 -9z"/>
<path d="M685 1100 c-3 -5 1 -10 9 -10 8 0 18 5 21 10 3 6 -1 10 -9 10 -8 0
-18 -4 -21 -10z"/>
<path d="M730 1101 c0 -6 5 -13 10 -16 6 -3 10 1 10 9 0 9 -4 16 -10 16 -5 0
-10 -4 -10 -9z"/>
<path d="M634 1057 c-2 -7 -33 -28 -69 -47 -36 -19 -65 -37 -65 -40 0 -5 21
-9 63 -11 18 0 25 -19 6 -19 -5 0 -7 -5 -3 -11 5 -8 9 -8 14 1 4 7 13 9 19 6
8 -5 8 0 0 18 -7 14 -21 26 -33 28 -18 3 -15 6 18 26 21 13 45 21 52 18 8 -3
14 1 14 10 0 9 7 14 18 12 14 -3 17 -14 17 -63 0 -54 -2 -60 -20 -57 -25 5
-22 2 -30 34 -6 22 -3 27 17 31 17 3 14 5 -11 6 -31 1 -33 -1 -27 -24 20 -82
20 -79 0 -71 -15 6 -17 5 -6 -5 9 -10 15 -10 24 -1 27 27 32 11 11 -44 -2 -6
5 -14 16 -17 12 -3 21 -1 21 3 0 5 -8 11 -17 13 -16 4 -16 5 -1 6 25 2 32 -18
14 -38 -20 -22 -20 -32 -1 -25 8 4 15 1 15 -5 0 -6 -4 -11 -9 -11 -5 0 -7 -9
-4 -20 3 -11 0 -20 -6 -20 -6 0 -11 -8 -11 -17 0 -16 2 -16 11 -3 9 12 10 12
5 -3 -3 -10 -6 -23 -6 -28 0 -5 -6 -8 -12 -6 -8 1 -12 -8 -11 -25 1 -23 -2
-27 -20 -25 -12 1 -22 -4 -23 -10 -3 -25 -4 -25 -19 -13 -11 9 -19 8 -37 -4
-17 -12 -19 -16 -6 -16 9 0 18 6 21 13 3 9 7 9 19 -1 14 -11 18 -10 30 7 8 12
18 18 21 15 11 -11 38 18 32 34 -4 10 0 12 11 8 8 -3 20 -6 25 -6 15 0 10 -22
-8 -36 -10 -7 -13 -14 -6 -14 6 0 15 5 18 10 5 8 11 7 21 -1 11 -9 18 -9 26
-1 9 9 8 12 -3 12 -18 0 -44 43 -35 58 3 6 2 22 -4 36 -10 28 -3 86 11 86 5 0
6 -6 3 -14 -3 -7 1 -20 8 -27 8 -8 22 -25 31 -39 9 -13 17 -19 17 -12 0 7 -9
22 -20 34 -11 12 -20 33 -20 47 0 28 15 19 23 -14 4 -16 5 -15 6 5 0 15 -3 30
-9 36 -12 12 15 54 36 54 8 0 14 10 14 26 0 22 -3 25 -22 21 -20 -6 -19 -3 6
17 36 28 30 56 -12 56 -35 0 -41 6 -35 31 6 23 43 26 43 3 0 -8 4 -13 9 -10 5
3 7 14 4 25 -3 13 -13 18 -33 17 -16 0 -26 -4 -24 -8 9 -14 -17 -19 -32 -7
-21 17 -74 21 -80 6z m86 -41 c0 -12 -5 -7 -19 24 -11 24 -11 24 3 6 9 -11 16
-24 16 -30z m-13 -38 c-3 -8 -6 -5 -6 6 -1 11 2 17 5 13 3 -3 4 -12 1 -19z
m33 2 c0 -5 -4 -10 -10 -10 -5 0 -10 5 -10 10 0 6 5 10 10 10 6 0 10 -4 10
-10z m60 -4 c0 -21 -42 -49 -51 -35 -4 6 -4 20 -2 30 6 23 53 27 53 5z m-70
-56 c-22 -14 -30 -12 -30 8 0 15 2 15 11 2 8 -12 10 -10 5 9 -5 23 -4 23 12 7
15 -15 15 -18 2 -26z m60 -19 c0 -26 -53 -41 -66 -19 -5 8 -2 9 9 5 12 -5 17
-1 17 12 0 14 5 18 20 14 11 -3 20 -8 20 -12z m-108 -13 c-7 -7 -12 -8 -12 -2
0 14 12 26 19 19 2 -3 -1 -11 -7 -17z m28 -12 c0 -3 -4 -8 -10 -11 -5 -3 -10
-1 -10 4 0 6 5 11 10 11 6 0 10 -2 10 -4z m30 -46 c0 -5 -4 -10 -10 -10 -5 0
-10 5 -10 10 0 6 5 10 10 10 6 0 10 -4 10 -10z"/>
<path d="M515 951 c-3 -5 -1 -12 5 -16 5 -3 10 1 10 9 0 18 -6 21 -15 7z"/>
<path d="M420 924 c-105 -60 -151 -83 -145 -74 10 17 -9 11 -35 -11 -14 -11
-18 -17 -10 -13 9 4 12 3 7 -2 -5 -5 -13 -10 -18 -10 -5 -1 -13 -2 -19 -3 -13
-1 -13 -38 0 -46 6 -3 10 1 10 9 0 9 6 16 13 16 6 0 23 3 36 7 17 4 22 3 17
-6 -4 -6 -12 -9 -17 -6 -5 4 -9 -4 -9 -17 0 -16 -10 -30 -30 -41 -16 -10 -30
-14 -30 -8 0 5 6 12 13 14 6 3 2 6 -10 6 -18 1 -23 -5 -23 -24 0 -29 5 -30 40
-10 36 20 42 18 38 -12 -3 -24 -7 -28 -30 -25 -23 2 -28 -1 -28 -19 0 -15 4
-19 15 -15 8 3 21 9 29 12 14 5 33 -42 21 -54 -3 -3 -5 3 -6 14 0 14 -23 -58
-29 -93 0 -2 5 -3 10 -3 6 0 10 9 10 19 0 11 5 23 11 27 8 4 9 -1 4 -16 -4
-14 -3 -25 5 -30 9 -6 8 -14 -4 -33 -13 -20 -14 -26 -4 -30 10 -4 10 -6 0 -6
-19 -1 -26 27 -12 44 7 9 10 18 7 21 -3 3 -13 -6 -23 -21 -15 -23 -15 -28 -3
-36 12 -8 12 -10 0 -18 -15 -10 -26 -45 -11 -36 5 3 11 -1 14 -7 3 -7 3 -3 1
9 -3 12 -1 24 5 28 5 3 10 -1 10 -10 0 -9 5 -13 10 -10 6 3 13 -2 17 -12 4
-10 13 -24 21 -32 12 -13 15 -12 24 2 5 10 13 15 19 12 5 -3 6 1 3 10 -6 14
-8 14 -20 -2 -10 -15 -15 -16 -26 -5 -15 15 -21 169 -7 178 5 3 7 10 4 15 -4
5 -1 9 4 9 14 0 14 -6 0 -31 -8 -16 -7 -25 7 -40 9 -10 12 -19 7 -19 -6 0 -13
-9 -16 -20 -4 -15 0 -20 14 -20 25 0 25 -18 -1 -22 -15 -2 -17 -7 -10 -18 9
-13 12 -13 21 3 8 14 14 16 25 6 11 -9 14 -8 14 5 0 9 -4 16 -9 16 -5 0 -8 8
-6 18 1 9 0 11 -2 4 -4 -10 -8 -10 -19 -1 -12 9 -11 14 1 32 17 25 20 63 5 72
-6 3 -7 18 -4 33 3 17 2 22 -3 15 -5 -8 -8 5 -7 34 2 37 6 49 25 59 21 11 25
10 30 -4 6 -15 8 -15 14 3 5 11 19 29 32 40 l25 20 -24 20 -23 20 18 -21 c18
-21 17 -22 -19 -36 -41 -16 -74 -13 -74 7 0 17 32 29 40 14 5 -6 9 -2 13 11 3
12 19 26 36 33 32 12 38 21 21 32 -16 10 -12 38 5 31 15 -5 19 4 15 39 -2 16
1 17 13 7 11 -10 17 -9 26 1 10 13 6 27 -8 27 -3 0 -26 -12 -51 -26z m10 -23
c0 -5 -7 -12 -16 -15 -11 -4 -14 -13 -10 -30 5 -20 0 -26 -25 -36 -17 -8 -37
-13 -45 -13 -7 0 -12 -3 -11 -6 1 -3 -2 -6 -6 -6 -5 0 -13 -8 -18 -17 -6 -10
-15 -18 -21 -18 -6 0 -1 11 12 25 l23 25 -27 0 c-17 0 -25 4 -20 11 3 6 15 9
25 6 10 -3 17 0 16 5 -1 6 23 26 53 44 58 35 70 40 70 25z m-149 -191 c13 0
11 -17 -3 -23 -9 -3 -13 6 -14 27 -1 17 1 23 3 14 2 -10 9 -18 14 -18z m54 10
c-3 -5 -10 -10 -16 -10 -5 0 -9 5 -9 10 0 6 7 10 16 10 8 0 12 -4 9 -10z m-35
-60 c0 -5 -4 -10 -10 -10 -5 0 -10 5 -10 10 0 6 5 10 10 10 6 0 10 -4 10 -10z
m20 -131 c0 -10 -4 -19 -10 -19 -5 0 -10 12 -10 26 0 14 4 23 10 19 6 -3 10
-15 10 -26z"/>
<path d="M479 873 c-12 -14 -12 -16 0 -8 11 6 13 4 8 -9 -4 -10 -3 -15 3 -11
14 9 12 -9 -2 -24 -11 -11 -10 -13 2 -9 9 3 16 19 18 41 3 40 -7 47 -29 20z"/>
<path d="M570 866 c7 -20 6 -24 -5 -19 -8 3 -15 0 -15 -6 0 -14 16 -14 41 0
22 11 18 23 -11 39 -18 10 -19 8 -10 -14z"/>
<path d="M455 830 c3 -5 8 -10 11 -10 2 0 4 5 4 10 0 6 -5 10 -11 10 -5 0 -7
-4 -4 -10z"/>
<path d="M540 805 c0 -7 -7 -18 -16 -23 -15 -8 -15 -10 0 -15 10 -4 16 -1 16
9 0 8 7 17 15 20 8 4 12 10 9 15 -8 14 -24 11 -24 -6z"/>
<path d="M602 798 c-16 -16 -15 -25 4 -32 8 -3 12 -2 9 3 -3 5 -1 12 5 16 12
7 13 25 2 25 -4 0 -13 -5 -20 -12z"/>
<path d="M462 764 c-11 -12 -10 -14 5 -14 15 0 16 -2 3 -10 -9 -6 -10 -10 -3
-10 6 0 15 5 18 11 4 6 13 8 21 5 21 -8 17 0 -9 17 -19 12 -24 12 -35 1z"/>
<path d="M565 770 c-3 -5 -1 -10 4 -10 6 0 11 5 11 10 0 6 -2 10 -4 10 -3 0
-8 -4 -11 -10z"/>
<path d="M631 764 c0 -11 3 -14 6 -6 3 7 2 16 -1 19 -3 4 -6 -2 -5 -13z"/>
<path d="M540 740 c0 -5 5 -10 11 -10 5 0 7 5 4 10 -3 6 -8 10 -11 10 -2 0 -4
-4 -4 -10z"/>
<path d="M726 725 c-2 -7 5 -16 17 -20 l22 -8 -21 -4 c-29 -5 -21 -34 13 -50
25 -12 25 -12 8 7 -9 10 -14 24 -10 30 6 9 10 9 16 -1 4 -7 11 -11 14 -7 3 3
-8 19 -24 35 -20 21 -31 26 -35 18z"/>
<path d="M395 720 c-4 -6 6 -10 20 -10 33 0 29 -16 -10 -44 -20 -15 -29 -18
-32 -8 -3 6 -13 12 -24 12 -18 0 -18 -1 1 -20 19 -19 22 -19 44 -5 30 20 70
15 76 -9 3 -11 12 -21 20 -24 10 -2 11 -1 4 5 -7 4 -13 17 -16 28 -2 13 -10
19 -21 17 -14 -2 -17 3 -15 24 2 20 -3 28 -19 35 -13 5 -25 4 -28 -1z"/>
<path d="M594 694 c0 -19 0 -34 2 -34 1 0 9 11 18 25 15 23 15 25 -2 34 -15 8
-17 4 -18 -25z"/>
<path d="M503 701 c-13 -21 -6 -32 30 -44 13 -5 17 -1 17 16 0 21 -16 47 -30
47 -3 0 -11 -9 -17 -19z m32 -12 c10 -15 -1 -23 -20 -15 -9 3 -13 10 -10 16 8
13 22 13 30 -1z"/>
<path d="M515 620 c3 -5 8 -10 11 -10 2 0 4 5 4 10 0 6 -5 10 -11 10 -5 0 -7
-4 -4 -10z"/>
<path d="M195 370 c-3 -5 -1 -10 4 -10 6 0 11 5 11 10 0 6 -2 10 -4 10 -3 0
-8 -4 -11 -10z"/>
<path d="M240 360 c0 -5 5 -10 10 -10 6 0 10 5 10 10 0 6 -4 10 -10 10 -5 0
-10 -4 -10 -10z"/>
<path d="M150 1185 c0 -2 10 -10 23 -16 20 -11 21 -11 8 4 -13 16 -31 23 -31
12z"/>
<path d="M102 1061 c4 -13 18 -16 19 -4 0 4 -5 9 -11 12 -7 2 -11 -2 -8 -8z"/>
<path d="M76 993 c-11 -11 -6 -23 9 -23 8 0 15 4 15 9 0 13 -16 22 -24 14z"/>
</g>
</svg>
